if (_typeface_js && _typeface_js.loadFace) _typeface_js.loadFace({"glyphs":{"0":{"ha":814,"x_min":0,"x_max":0,"o":"m 131 474 b 407 882 131 700 256 882 b 682 474 561 882 682 700 b 407 64 682 246 561 64 b 131 474 256 64 131 246 z m 54 474 b 407 -12 54 207 214 -12 b 757 474 601 -12 757 207 b 407 958 757 742 601 958 b 54 474 214 958 54 742 z "},"1":{"ha":365,"x_min":0,"x_max":0,"o":"m 92 751 b 213 851 129 782 174 818 l 213 0 l 289 0 l 289 953 l 219 953 l 39 803 z "},"2":{"ha":660,"x_min":0,"x_max":0,"o":"m 518 458 b 600 660 568 510 600 581 b 296 958 600 824 464 958 b 78 867 215 958 139 919 l 132 813 b 296 882 178 856 236 882 b 525 660 424 882 525 785 b 468 513 525 603 503 551 l 72 69 l 72 0 l 600 0 l 600 75 l 179 75 z "},"3":{"ha":599,"x_min":0,"x_max":0,"o":"m 26 90 b 260 -15 82 28 167 -15 b 554 257 422 -15 554 106 b 413 485 554 354 497 438 b 561 703 499 528 561 608 b 264 958 561 844 426 958 b 26 860 172 958 85 922 l 79 804 b 264 883 125 856 193 883 b 481 703 382 883 481 804 b 278 524 481 610 392 531 l 143 524 l 143 449 l 276 449 b 478 257 379 429 478 349 b 260 60 478 149 379 60 b 79 143 189 60 124 94 z "},"4":{"ha":657,"x_min":0,"x_max":0,"o":"m 389 343 l 389 0 l 465 0 l 465 343 l 599 343 l 599 419 l 465 419 l 465 626 l 389 626 l 389 419 l 139 419 l 428 919 l 363 956 l 49 413 l 46 343 z "},"5":{"ha":700,"x_min":0,"x_max":0,"o":"m 135 475 b 340 614 172 558 251 614 b 574 346 469 614 574 496 b 340 75 574 196 469 75 b 144 197 260 75 189 124 l 90 143 b 340 0 147 57 240 0 b 650 346 513 0 650 156 b 340 688 650 535 513 688 b 143 613 261 688 194 663 b 169 876 154 707 160 785 l 613 876 l 613 953 l 96 953 l 63 475 z "},"6":{"ha":703,"x_min":0,"x_max":0,"o":"m 654 289 b 356 569 653 453 514 569 b 139 460 265 565 188 524 l 139 471 b 157 689 139 549 144 622 b 376 883 175 801 269 883 b 557 785 446 883 514 844 l 631 829 b 375 960 565 914 475 960 b 88 710 231 956 114 847 b 69 488 74 642 69 568 l 69 458 b 75 271 69 397 69 331 l 75 272 b 363 -11 82 111 208 -11 b 654 276 525 -11 654 114 z m 581 286 l 581 274 b 365 63 581 158 483 63 b 150 272 250 63 150 157 b 363 494 150 390 242 494 b 581 286 482 494 576 404 z "},"7":{"ha":615,"x_min":0,"x_max":0,"o":"m 50 0 l 138 0 l 582 953 l 86 953 l 86 876 l 458 876 z "},"8":{"ha":638,"x_min":0,"x_max":0,"o":"m 39 268 b 318 -12 39 114 165 -12 b 600 268 476 -12 600 114 b 458 514 600 374 544 465 b 571 715 531 556 571 628 b 318 958 571 849 460 958 b 69 715 182 958 69 849 b 182 514 69 628 113 556 b 39 268 101 465 39 372 z m 144 715 b 318 882 144 808 224 882 b 493 715 415 882 493 808 b 318 549 493 624 415 549 b 144 715 224 549 144 624 z m 115 268 b 318 474 115 381 208 474 b 525 268 433 474 525 381 b 318 64 525 158 433 64 b 115 268 208 64 115 158 z "},"9":{"ha":679,"x_min":0,"x_max":0,"o":"m 49 660 b 336 382 51 504 183 382 b 565 486 428 382 513 426 l 565 469 b 550 257 565 396 560 322 b 324 68 526 150 439 68 b 144 169 256 68 189 106 l 75 113 b 314 -10 133 40 222 -10 b 619 239 463 -10 592 92 b 636 447 632 304 636 374 l 636 483 b 632 674 636 543 636 615 b 339 960 619 828 496 960 b 49 669 178 960 49 828 z m 121 663 b 340 882 121 779 217 882 b 556 672 453 882 556 786 b 336 457 556 551 458 457 b 121 663 222 457 128 549 z "}," ":{"ha":357,"x_min":0,"x_max":0,"o":""},"e":{"ha":633,"x_min":0,"x_max":0,"o":"m 329 63 b 113 311 214 64 122 169 l 589 311 l 589 353 b 314 704 589 551 469 704 b 35 346 161 704 35 543 l 35 321 b 329 -12 46 135 175 -12 b 365 -11 340 -12 354 -12 b 538 49 426 0 485 19 l 508 115 b 329 63 461 92 385 63 z m 114 385 b 314 626 132 519 215 626 b 515 385 418 626 503 524 z "},"f":{"ha":456,"x_min":0,"x_max":0,"o":"m 429 954 b 351 958 396 958 376 958 b 144 721 243 958 151 850 l 144 704 b 146 679 144 704 146 688 l 46 679 l 46 603 l 147 603 l 147 0 l 219 0 l 219 603 l 397 603 l 397 679 l 219 679 l 219 706 b 351 883 219 803 278 881 b 407 878 365 883 383 883 z "},"g":{"ha":765,"x_min":0,"x_max":0,"o":"m 289 175 l 282 175 b 268 174 278 175 272 174 b 229 208 250 174 229 178 b 265 235 229 229 249 235 b 308 228 276 235 292 232 b 375 219 326 224 349 219 b 654 460 529 219 654 325 b 594 613 654 518 629 572 l 660 613 l 732 688 l 479 688 b 375 703 449 696 418 703 b 97 460 221 703 97 593 b 192 276 97 385 129 322 b 169 206 178 260 169 235 b 179 146 169 183 172 163 b 43 -44 100 108 43 35 b 322 -271 43 -168 171 -271 b 604 -44 479 -271 604 -168 b 322 178 604 79 479 178 b 289 175 313 178 299 178 z m 117 -44 b 322 108 117 36 213 108 b 532 -44 440 108 532 36 b 322 -197 532 -126 440 -197 b 117 -44 213 -197 117 -126 z m 172 460 b 375 629 172 556 264 629 b 582 460 492 629 582 556 b 375 292 582 368 492 292 b 172 460 264 292 172 368 z "},"p":{"ha":703,"x_min":0,"x_max":0,"o":"m 125 561 b 318 629 125 599 211 629 b 578 350 461 629 578 504 b 318 64 578 193 461 68 b 125 129 219 68 135 94 z m 125 693 l 26 693 b 51 561 49 669 51 561 l 51 -264 l 126 -264 l 126 33 b 318 -11 174 6 243 -11 b 653 350 504 -11 653 150 b 318 707 653 544 504 703 b 125 661 246 707 172 685 z "},"y":{"ha":743,"x_min":0,"x_max":0,"o":"m 67 -262 b 126 -271 86 -268 107 -271 b 350 -104 214 -271 311 -210 b 410 54 368 -51 390 1 l 408 53 l 672 703 l 592 703 b 372 150 519 521 444 331 l 151 703 l 71 703 b 335 54 158 490 249 267 b 282 -76 317 10 300 -32 b 129 -196 253 -154 189 -196 b 78 -185 111 -196 89 -196 z "},"R":{"ha":658,"x_min":0,"x_max":0,"o":"m 536 0 l 635 0 b 218 472 504 150 350 321 l 333 472 b 610 718 486 472 610 582 b 333 960 610 853 486 960 l 54 960 l 54 0 l 131 0 l 131 458 z m 331 888 b 533 718 442 888 533 810 b 333 549 533 622 442 549 l 131 549 l 131 888 z "},"d":{"ha":742,"x_min":0,"x_max":0,"o":"m 403 65 b 140 350 256 71 140 197 b 400 626 140 499 256 622 b 590 563 503 626 581 597 l 590 139 b 403 65 590 103 507 71 z m 590 4 l 692 4 b 665 139 665 25 665 139 l 665 953 l 590 953 l 590 658 b 400 703 539 690 478 703 b 67 350 217 701 67 544 b 400 -10 67 153 217 -6 b 590 35 471 -6 543 11 z "},"h":{"ha":632,"x_min":0,"x_max":0,"o":"m 58 956 l 58 0 l 133 0 l 133 468 b 304 629 153 553 225 629 b 478 449 397 629 474 550 l 478 4 l 553 4 l 549 449 b 313 704 546 590 444 704 b 133 619 239 704 179 674 l 133 956 z "},"i":{"ha":246,"x_min":0,"x_max":0,"o":"m 82 0 l 156 0 l 156 694 l 82 694 z m 71 888 b 119 842 71 864 92 842 b 168 888 144 842 168 864 b 119 933 168 913 144 933 b 71 888 92 933 71 913 z "},"j":{"ha":492,"x_min":0,"x_max":0,"o":"m 260 881 b 307 835 260 856 278 835 b 351 881 328 835 351 856 b 307 926 351 908 328 926 b 260 881 278 926 260 908 z m 64 -262 b 94 -265 82 -262 86 -264 b 139 -268 108 -267 124 -268 b 346 -32 251 -264 338 -160 l 346 696 l 271 696 l 271 -19 b 132 -190 271 -112 210 -190 b 131 -194 132 -190 131 -192 b 113 -193 126 -194 119 -194 b 71 -190 103 -192 90 -190 z "},"k":{"ha":611,"x_min":0,"x_max":0,"o":"m 154 953 l 79 953 l 79 71 b 58 0 79 38 67 8 l 154 0 l 154 382 b 238 454 183 406 211 431 l 496 0 l 585 0 b 296 504 490 163 389 342 l 515 686 l 399 686 b 154 481 319 619 236 549 z "},"l":{"ha":225,"x_min":0,"x_max":0,"o":"m 82 0 l 157 0 l 157 953 l 82 953 z "},"m":{"ha":1026,"x_min":0,"x_max":0,"o":"m 129 694 l 33 694 b 54 619 42 686 54 647 l 54 0 l 129 0 l 129 465 b 299 625 147 550 218 625 b 471 446 393 625 468 547 l 471 3 l 546 3 l 546 468 b 718 628 563 553 633 628 b 886 449 810 628 883 547 l 886 3 l 963 3 l 960 449 b 724 704 956 592 854 704 b 515 567 649 704 558 664 b 306 701 474 643 396 701 b 129 617 235 701 175 671 z "},"n":{"ha":601,"x_min":0,"x_max":0,"o":"m 124 689 l 28 689 b 49 622 36 681 49 650 l 49 0 l 124 0 l 124 468 b 296 629 143 554 214 629 b 467 449 389 629 465 550 l 467 0 l 543 0 l 540 449 b 303 706 536 592 433 706 b 124 619 231 706 169 675 z "},"o":{"ha":713,"x_min":0,"x_max":0,"o":"m 103 343 b 353 626 103 500 214 626 b 600 343 489 626 600 500 b 353 63 600 189 489 63 b 103 343 214 63 103 189 z m 26 343 b 353 -14 26 147 174 -14 b 676 343 532 -14 676 147 b 353 703 676 542 532 703 b 26 343 174 703 26 542 z "},"q":{"ha":713,"x_min":0,"x_max":0,"o":"m 557 663 b 369 703 511 689 446 703 b 47 358 194 703 47 547 b 369 14 47 171 194 18 b 557 58 444 14 508 28 l 557 -264 l 631 -264 l 631 686 l 557 686 z m 557 151 b 369 86 544 118 467 86 b 121 358 233 90 121 208 b 369 629 121 508 233 629 b 557 561 474 629 557 599 z "},"r":{"ha":388,"x_min":0,"x_max":0,"o":"m 353 696 b 308 703 335 703 319 703 b 131 617 236 703 175 672 l 131 696 l 25 696 b 56 619 44 683 56 647 l 56 0 l 131 0 l 131 465 b 301 626 149 551 219 626 b 333 621 310 626 315 626 z "},"s":{"ha":579,"x_min":0,"x_max":0,"o":"m 525 607 b 300 701 472 663 386 701 b 65 521 174 701 65 629 b 288 315 65 428 164 335 b 446 176 371 297 446 236 b 288 64 446 110 375 64 b 121 132 224 64 160 93 l 64 88 b 292 -11 115 25 207 -11 b 521 176 417 -11 521 65 b 301 386 521 276 428 368 b 142 519 208 400 142 458 b 294 625 142 582 208 625 b 464 563 358 625 422 603 z "},"t":{"ha":472,"x_min":0,"x_max":0,"o":"m 164 953 l 164 685 l 64 685 l 64 608 l 167 608 l 167 0 l 240 0 l 240 608 l 422 608 l 422 685 l 240 685 l 240 953 z "},"u":{"ha":625,"x_min":0,"x_max":0,"o":"m 476 0 l 572 0 b 551 75 564 8 551 44 l 551 694 l 476 694 l 476 226 b 308 65 461 142 392 65 b 136 246 217 65 140 149 l 135 253 l 135 692 l 60 692 l 60 249 b 64 243 61 247 63 246 b 299 -12 68 101 169 -12 b 476 74 369 -12 432 22 z "},"v":{"ha":694,"x_min":0,"x_max":0,"o":"m 304 0 l 376 0 l 660 694 l 576 694 b 342 114 499 503 418 307 l 104 694 l 25 694 z "},"w":{"ha":979,"x_min":0,"x_max":0,"o":"m 933 694 l 850 694 b 615 115 774 504 693 306 l 383 694 l 297 694 b 433 356 340 586 390 465 b 336 115 401 274 368 196 l 100 694 l 19 694 l 300 4 l 371 0 b 478 253 406 82 443 169 l 576 4 l 650 0 z "},"x":{"ha":617,"x_min":0,"x_max":0,"o":"m 250 360 l 31 0 l 122 0 b 296 282 179 94 238 188 l 474 0 l 565 0 b 349 349 497 110 417 238 l 565 694 l 472 694 b 300 425 418 610 354 513 l 132 694 l 38 694 z "},"z":{"ha":628,"x_min":0,"x_max":0,"o":"m 57 0 l 572 0 l 572 76 l 161 76 l 572 622 l 572 694 l 61 694 l 61 618 l 468 618 l 57 72 z "},"A":{"ha":828,"x_min":0,"x_max":0,"o":"m 288 467 b 418 819 332 589 374 699 b 550 467 464 693 504 592 z m 35 0 l 114 0 b 260 390 161 126 214 264 l 578 390 l 724 0 l 803 0 l 450 960 l 388 960 z "},"B":{"ha":711,"x_min":0,"x_max":0,"o":"m 379 3 l 378 3 b 656 276 535 6 656 129 b 513 510 656 374 600 464 b 636 719 585 554 636 631 b 378 960 636 847 521 957 l 68 960 l 68 0 l 354 0 z m 378 886 b 560 719 481 881 560 806 b 378 549 560 624 481 551 l 144 549 l 144 886 z m 378 76 l 144 76 l 144 472 l 378 472 b 579 276 490 465 579 378 b 378 76 579 171 490 82 z "},"C":{"ha":819,"x_min":0,"x_max":0,"o":"m 778 825 b 472 965 699 911 588 965 b 35 479 229 965 35 738 b 472 -12 35 210 242 -12 b 775 128 586 -12 693 42 l 722 179 b 472 65 651 108 567 65 b 113 479 265 65 113 256 b 472 889 113 707 276 889 b 725 774 567 889 656 846 z "},"D":{"ha":799,"x_min":0,"x_max":0,"o":"m 403 883 b 664 482 549 881 664 701 b 406 79 664 263 549 83 b 122 76 313 79 217 76 l 122 883 z m 46 0 l 406 0 b 740 482 593 7 740 219 b 403 960 740 744 590 957 l 46 960 z "},"E":{"ha":674,"x_min":0,"x_max":0,"o":"m 546 549 l 132 549 l 132 886 l 617 886 l 617 960 l 56 960 l 56 0 l 617 0 l 617 76 l 132 76 l 132 472 l 546 472 z "},"F":{"ha":676,"x_min":0,"x_max":0,"o":"m 551 549 l 138 549 l 138 888 l 622 888 l 622 960 l 61 960 l 61 0 l 138 0 l 138 472 l 551 472 z "},"G":{"ha":839,"x_min":0,"x_max":0,"o":"m 772 129 l 772 482 l 436 482 l 436 408 l 696 408 l 696 153 b 469 61 636 97 556 61 b 106 475 269 61 106 247 b 469 888 106 706 269 888 b 724 772 564 888 654 844 l 776 825 b 469 965 693 913 585 965 b 31 475 228 965 31 744 b 469 -12 31 207 228 -12 b 769 118 585 -12 690 36 z "},"H":{"ha":775,"x_min":0,"x_max":0,"o":"m 639 472 l 639 0 l 714 0 l 714 960 l 639 960 l 639 549 l 139 549 l 139 960 l 63 960 l 63 0 l 139 0 l 139 472 z "},"I":{"ha":192,"x_min":0,"x_max":0,"o":"m 136 960 l 60 960 l 60 0 l 136 0 z "},"J":{"ha":424,"x_min":0,"x_max":0,"o":"m 344 960 l 267 960 l 267 236 b 160 64 267 136 218 64 b 86 107 135 64 108 82 l 36 54 b 160 -12 71 15 114 -12 b 344 239 260 -12 344 103 z "},"K":{"ha":810,"x_min":0,"x_max":0,"o":"m 56 960 l 56 0 l 132 0 l 132 347 b 250 483 172 393 210 438 l 664 0 l 763 0 b 300 542 613 175 449 367 l 658 960 l 557 960 b 132 464 415 794 274 629 l 132 960 z "},"L":{"ha":629,"x_min":0,"x_max":0,"o":"m 131 960 l 56 960 l 56 0 l 590 0 l 590 76 l 131 76 z "},"M":{"ha":865,"x_min":0,"x_max":0,"o":"m 421 444 l 114 960 l 42 960 l 42 0 l 118 0 l 118 803 l 396 333 l 443 333 b 717 803 531 488 626 650 l 717 0 l 794 0 l 794 960 l 721 960 z "},"N":{"ha":746,"x_min":0,"x_max":0,"o":"m 60 960 l 60 0 l 135 0 l 135 804 l 607 0 l 679 0 l 679 960 l 603 960 l 603 160 l 131 960 z "},"O":{"ha":958,"x_min":0,"x_max":0,"o":"m 721 779 b 836 479 793 706 836 599 b 474 65 836 249 681 65 b 114 479 272 65 114 249 b 474 888 114 707 274 888 b 721 779 569 888 658 849 z m 776 122 b 910 479 861 211 910 335 b 474 965 910 750 724 965 b 36 479 232 965 36 749 b 474 -12 36 200 239 -12 b 776 122 592 -12 697 36 z "},"P":{"ha":667,"x_min":0,"x_max":0,"o":"m 347 471 b 622 719 500 471 622 581 b 347 960 622 851 500 960 l 68 960 l 68 0 l 143 0 l 143 471 z m 344 886 b 546 719 456 886 546 810 b 347 547 546 621 456 547 l 143 547 l 143 886 z "},"Q":{"ha":924,"x_min":0,"x_max":0,"o":"m 676 793 b 785 511 744 722 785 622 b 511 132 785 324 664 168 b 375 233 499 190 444 235 l 375 165 b 436 126 406 167 428 149 b 118 511 257 136 118 306 b 451 897 118 725 269 897 b 676 793 540 897 617 857 z m 729 183 b 858 511 807 264 858 382 b 451 965 858 767 671 965 b 47 511 235 965 47 769 b 443 58 47 264 232 71 b 565 -92 457 -24 507 -92 b 660 -29 601 -92 631 -67 l 606 18 b 565 -19 596 -3 582 -19 b 514 64 542 -19 522 17 b 729 183 596 79 672 121 z "},"S":{"ha":674,"x_min":0,"x_max":0,"o":"m 54 126 b 324 -12 110 44 208 -12 b 615 244 485 -12 615 101 b 343 511 615 376 499 490 b 135 710 224 521 135 610 b 354 892 135 811 240 892 b 550 800 435 892 504 857 l 613 850 b 354 964 547 922 463 964 b 56 704 189 964 56 853 b 335 436 56 569 176 454 b 536 240 447 419 536 336 b 326 64 536 140 438 64 b 115 175 235 64 160 107 z "},"T":{"ha":799,"x_min":0,"x_max":0,"o":"m 743 886 l 743 960 l 53 960 l 53 886 l 361 886 l 361 0 l 438 0 l 438 886 z "},"U":{"ha":831,"x_min":0,"x_max":0,"o":"m 135 960 l 54 960 l 54 244 b 415 -12 64 104 221 -12 b 765 244 601 -12 760 104 l 765 960 l 689 960 l 689 244 b 415 65 676 150 556 65 b 135 244 268 65 147 150 z "},"V":{"ha":888,"x_min":0,"x_max":0,"o":"m 404 0 l 478 0 l 832 960 l 751 960 b 442 122 651 685 543 399 l 131 960 l 51 960 z "},"W":{"ha":1271,"x_min":0,"x_max":0,"o":"m 1196 960 l 1114 960 b 806 122 1014 685 907 399 b 635 579 747 282 693 421 l 494 960 l 415 960 b 585 496 471 808 529 647 b 449 121 540 372 493 244 l 138 960 l 57 960 l 411 0 l 486 0 b 625 381 532 125 579 256 l 767 0 l 843 0 z "},"X":{"ha":751,"x_min":0,"x_max":0,"o":"m 326 490 l 40 0 l 126 0 b 369 414 207 138 290 276 l 615 0 l 703 0 b 424 482 613 156 514 326 l 703 960 l 615 960 b 378 560 538 828 456 692 l 139 960 l 53 960 z "},"Y":{"ha":946,"x_min":0,"x_max":0,"o":"m 801 960 b 467 507 690 811 576 656 l 136 960 l 35 960 b 429 432 157 794 306 597 l 429 0 l 507 0 l 507 432 l 901 960 z "},"Z":{"ha":761,"x_min":0,"x_max":0,"o":"m 721 960 l 82 960 l 82 883 l 585 883 l 33 0 l 665 0 l 665 76 l 172 76 z "},"{":{"ha":310,"x_min":0,"x_max":0,"o":"m 214 74 l 214 421 b 156 471 206 447 183 467 l 156 508 b 214 560 186 511 204 533 l 214 879 b 238 875 215 875 225 875 l 238 953 b 138 890 189 953 144 928 l 138 578 b 88 526 138 550 115 526 l 50 526 l 50 451 l 88 451 b 138 400 115 451 138 429 l 138 74 b 238 0 138 29 197 0 l 238 75 b 214 74 224 75 214 75 z "},"}":{"ha":261,"x_min":0,"x_max":0,"o":"m 58 78 b 32 75 54 76 47 75 l 32 0 b 135 74 78 0 135 31 l 135 400 b 181 451 135 429 153 451 l 218 451 l 218 526 l 181 526 b 135 578 153 526 135 550 l 135 882 l 132 890 b 32 953 125 925 88 953 l 32 875 l 58 875 l 58 560 b 115 508 64 536 88 514 b 113 471 114 494 113 483 b 58 419 85 469 65 450 z "},"€":{"ha":1035,"x_min":0,"x_max":0,"o":"m 928 208 b 639 65 850 119 754 65 b 281 353 475 65 328 190 l 743 353 l 743 429 l 264 429 b 263 447 264 438 263 438 b 261 471 261 456 261 464 b 267 539 261 496 263 518 l 743 539 l 743 615 l 285 615 b 639 881 338 771 478 881 b 928 743 754 881 850 828 l 982 799 b 639 958 893 893 774 958 b 204 615 436 958 263 817 l 53 615 l 53 539 l 189 539 l 189 536 b 185 471 188 518 185 494 b 186 444 185 465 185 453 b 188 429 186 440 188 433 l 53 429 l 53 353 l 199 353 b 639 -12 247 142 424 -12 b 982 147 774 -12 893 53 z "},"‚":{"ha":239,"x_min":0,"x_max":0,"o":"m 97 13 l 43 -75 l 58 -99 l 181 6 l 181 106 l 97 106 z "},",":{"ha":240,"x_min":0,"x_max":0,"o":"m 97 13 l 43 -75 l 58 -99 l 181 6 l 181 106 l 97 106 z "},".":{"ha":201,"x_min":0,"x_max":0,"o":"m 50 0 l 156 0 l 156 106 l 50 106 z "},"¿":{"ha":600,"x_min":0,"x_max":0,"o":"m 246 953 b 374 517 285 818 333 654 l 311 517 b 60 251 175 517 60 393 b 318 -14 60 107 176 -14 b 536 111 410 -14 488 38 l 482 167 b 318 64 443 106 385 64 b 133 251 217 64 133 150 b 311 439 133 354 214 436 l 454 439 l 454 510 l 325 953 z m 300 1071 b 256 1119 300 1100 279 1119 b 208 1071 226 1119 208 1100 b 256 1024 208 1044 226 1024 b 300 1071 279 1024 300 1044 z "},"æ":{"ha":1032,"x_min":0,"x_max":0,"o":"m 433 0 l 535 0 b 508 89 515 15 510 46 b 715 -12 561 25 633 -12 b 751 -11 728 -12 740 -12 b 925 49 813 0 872 19 l 894 115 b 715 63 847 92 772 63 b 507 261 619 63 535 151 l 507 311 l 976 311 l 976 353 b 700 704 976 551 856 704 b 483 569 614 704 535 653 b 300 703 447 649 379 700 b 117 676 236 703 175 693 l 136 604 b 299 626 188 619 243 626 b 433 451 372 624 432 550 b 426 415 432 442 428 426 l 281 415 b 53 200 156 415 53 319 b 281 -14 53 82 156 -14 b 433 42 338 -14 393 8 z m 508 385 b 700 626 511 525 599 626 b 901 385 804 626 889 524 z m 422 321 b 433 239 424 290 428 263 l 433 200 b 281 64 433 124 364 64 b 131 200 196 64 131 124 b 281 340 131 276 196 340 l 422 340 z "},"a":{"ha":564,"x_min":0,"x_max":0,"o":"m 431 0 l 526 0 b 504 221 511 17 504 119 b 507 449 504 332 507 449 l 507 463 b 297 703 500 594 408 700 b 114 676 232 703 171 693 l 132 604 b 296 626 185 619 240 626 b 431 435 376 624 431 539 l 431 415 l 286 415 b 50 200 158 415 50 325 b 276 -14 50 82 153 -14 b 431 42 335 -14 390 8 z m 431 200 b 276 64 431 124 361 64 b 126 200 193 64 126 124 b 286 340 126 283 199 340 l 431 340 z "},"b":{"ha":726,"x_min":0,"x_max":0,"o":"m 151 561 b 346 626 164 596 249 626 b 604 346 486 626 604 496 b 346 63 604 192 486 65 b 151 136 239 65 151 97 z m 151 32 b 346 -14 200 4 265 -10 b 679 346 531 -10 679 150 b 346 703 679 539 531 703 b 156 660 271 703 204 688 l 156 953 l 79 953 l 79 136 b 57 0 79 136 74 24 l 151 0 z "},"c":{"ha":664,"x_min":0,"x_max":0,"o":"m 606 588 b 360 703 543 656 456 703 b 28 344 179 703 28 542 b 360 -12 28 149 179 -12 b 603 101 453 -12 536 32 l 547 154 b 360 64 497 97 431 64 b 103 344 218 64 103 190 b 360 626 103 501 218 626 b 551 532 433 626 503 589 z "},"œ":{"ha":1222,"x_min":0,"x_max":0,"o":"m 907 63 b 690 311 792 64 700 169 l 1168 311 l 1168 353 b 892 704 1168 551 1047 704 b 644 510 786 704 692 621 b 357 703 590 622 481 703 b 31 343 178 703 31 542 b 357 -14 31 147 178 -14 b 646 181 482 -14 592 68 b 907 -12 694 67 793 -12 b 943 -11 919 -12 932 -12 b 1117 49 1004 0 1064 19 l 1086 115 b 907 63 1039 92 964 63 z m 106 343 b 357 626 106 500 218 626 b 603 343 492 626 603 500 b 357 63 603 189 492 63 b 106 343 218 63 106 189 z m 692 385 b 892 626 710 519 793 626 b 1093 385 996 626 1081 524 z "},"Œ":{"ha":1467,"x_min":0,"x_max":0,"o":"m 779 122 b 838 199 801 146 819 171 l 838 0 l 1400 0 l 1400 76 l 914 76 l 914 472 l 1329 472 l 1329 549 l 914 549 l 914 886 l 1400 886 l 1400 960 l 838 960 l 838 757 b 475 965 758 892 632 965 b 39 479 235 965 39 749 b 475 -12 39 200 242 -12 b 779 122 594 -12 700 36 z m 724 779 b 838 514 788 713 829 621 l 838 443 b 475 65 818 235 668 65 b 117 479 274 65 117 249 b 475 888 117 707 276 888 b 724 779 572 888 661 849 z "},"?":{"ha":569,"x_min":0,"x_max":0,"o":"m 331 0 b 203 433 292 135 243 297 l 263 433 b 514 693 403 433 514 554 b 258 958 514 839 400 958 b 43 833 169 958 90 908 l 97 779 b 258 883 133 840 192 883 b 440 693 358 883 440 799 b 263 508 440 592 363 511 l 125 508 l 125 440 l 250 0 z m 274 -121 b 319 -169 274 -147 296 -169 b 364 -121 347 -169 364 -147 b 319 -75 364 -93 347 -75 b 274 -121 296 -75 274 -93 z "},"´":{"ha":290,"x_min":0,"x_max":0,"o":"m 265 883 l 146 883 l 43 747 l 96 747 z "},"`":{"ha":283,"x_min":0,"x_max":0,"o":"m 190 747 l 242 747 l 140 883 l 19 883 z "},"à":{"ha":564,"x_min":0,"x_max":0,"o":"m 431 0 l 526 0 b 504 221 511 17 504 119 b 507 449 504 332 507 449 l 507 463 b 297 703 500 594 408 700 b 114 676 232 703 171 693 l 132 604 b 296 626 185 619 240 626 b 431 435 376 624 431 539 l 431 415 l 286 415 b 50 200 158 415 50 325 b 276 -14 50 82 153 -14 b 431 42 335 -14 390 8 z m 431 200 b 276 64 431 124 361 64 b 126 200 193 64 126 124 b 286 340 126 283 199 340 l 431 340 z m 274 747 l 325 747 l 224 883 l 103 883 z "},"á":{"ha":564,"x_min":0,"x_max":0,"o":"m 431 0 l 526 0 b 504 221 511 17 504 119 b 507 449 504 332 507 449 l 507 463 b 297 703 500 594 408 700 b 114 676 232 703 171 693 l 132 604 b 296 626 185 619 240 626 b 431 435 376 624 431 539 l 431 415 l 286 415 b 50 200 158 415 50 325 b 276 -14 50 82 153 -14 b 431 42 335 -14 390 8 z m 431 200 b 276 64 431 124 361 64 b 126 200 193 64 126 124 b 286 340 126 283 199 340 l 431 340 z m 453 883 l 333 883 l 231 747 l 283 747 z "},"À":{"ha":828,"x_min":0,"x_max":0,"o":"m 288 467 b 418 819 332 589 374 699 b 550 467 464 693 504 592 z m 35 0 l 114 0 b 260 390 161 126 214 264 l 578 390 l 724 0 l 803 0 l 450 960 l 388 960 z m 413 1013 l 464 1013 l 363 1149 l 242 1149 z "},"Á":{"ha":828,"x_min":0,"x_max":0,"o":"m 288 467 b 418 819 332 589 374 699 b 550 467 464 693 504 592 z m 35 0 l 114 0 b 260 390 161 126 214 264 l 578 390 l 724 0 l 803 0 l 450 960 l 388 960 z m 608 1149 l 489 1149 l 386 1013 l 439 1013 z "},"Â":{"ha":828,"x_min":0,"x_max":0,"o":"m 288 467 b 418 819 332 589 374 699 b 550 467 464 693 504 592 z m 35 0 l 114 0 b 260 390 161 126 214 264 l 578 390 l 724 0 l 803 0 l 450 960 l 388 960 z "},"È":{"ha":674,"x_min":0,"x_max":0,"o":"m 546 549 l 132 549 l 132 886 l 617 886 l 617 960 l 56 960 l 56 0 l 617 0 l 617 76 l 132 76 l 132 472 l 546 472 z m 317 1013 l 368 1013 l 267 1149 l 146 1149 z "},"É":{"ha":674,"x_min":0,"x_max":0,"o":"m 546 549 l 132 549 l 132 886 l 617 886 l 617 960 l 56 960 l 56 0 l 617 0 l 617 76 l 132 76 l 132 472 l 546 472 z m 493 1149 l 374 1149 l 271 1013 l 324 1013 z "},"Ò":{"ha":958,"x_min":0,"x_max":0,"o":"m 721 779 b 836 479 793 706 836 599 b 474 65 836 249 681 65 b 114 479 272 65 114 249 b 474 888 114 707 274 888 b 721 779 569 888 658 849 z m 776 122 b 910 479 861 211 910 335 b 474 965 910 750 724 965 b 36 479 232 965 36 749 b 474 -12 36 200 239 -12 b 776 122 592 -12 697 36 z m 443 1013 l 494 1013 l 393 1149 l 272 1149 z "},"Ó":{"ha":958,"x_min":0,"x_max":0,"o":"m 721 779 b 836 479 793 706 836 599 b 474 65 836 249 681 65 b 114 479 272 65 114 249 b 474 888 114 707 274 888 b 721 779 569 888 658 849 z m 776 122 b 910 479 861 211 910 335 b 474 965 910 750 724 965 b 36 479 232 965 36 749 b 474 -12 36 200 239 -12 b 776 122 592 -12 697 36 z m 685 1149 l 565 1149 l 463 1013 l 515 1013 z "},"Ù":{"ha":831,"x_min":0,"x_max":0,"o":"m 135 960 l 54 960 l 54 244 b 415 -12 64 104 221 -12 b 765 244 601 -12 760 104 l 765 960 l 689 960 l 689 244 b 415 65 676 150 556 65 b 135 244 268 65 147 150 z m 404 1013 l 456 1013 l 354 1149 l 233 1149 z "},"Ú":{"ha":831,"x_min":0,"x_max":0,"o":"m 135 960 l 54 960 l 54 244 b 415 -12 64 104 221 -12 b 765 244 601 -12 760 104 l 765 960 l 689 960 l 689 244 b 415 65 676 150 556 65 b 135 244 268 65 147 150 z m 603 1149 l 483 1149 l 381 1013 l 433 1013 z "},"Ý":{"ha":946,"x_min":0,"x_max":0,"o":"m 801 960 b 467 507 690 811 576 656 l 136 960 l 35 960 b 429 432 157 794 306 597 l 429 0 l 507 0 l 507 432 l 901 960 z m 672 1149 l 553 1149 l 450 1013 l 503 1013 z "},"è":{"ha":633,"x_min":0,"x_max":0,"o":"m 329 63 b 113 311 214 64 122 169 l 589 311 l 589 353 b 314 704 589 551 469 704 b 35 346 161 704 35 543 l 35 321 b 329 -12 46 135 175 -12 b 365 -11 340 -12 354 -12 b 538 49 426 0 485 19 l 508 115 b 329 63 461 92 385 63 z m 114 385 b 314 626 132 519 215 626 b 515 385 418 626 503 524 z m 314 747 l 365 747 l 264 883 l 143 883 z "},"é":{"ha":633,"x_min":0,"x_max":0,"o":"m 329 63 b 113 311 214 64 122 169 l 589 311 l 589 353 b 314 704 589 551 469 704 b 35 346 161 704 35 543 l 35 321 b 329 -12 46 135 175 -12 b 365 -11 340 -12 354 -12 b 538 49 426 0 485 19 l 508 115 b 329 63 461 92 385 63 z m 114 385 b 314 626 132 519 215 626 b 515 385 418 626 503 524 z m 493 883 l 374 883 l 271 747 l 324 747 z "},"ì":{"ha":293,"x_min":0,"x_max":0,"o":"m 122 0 l 196 0 l 196 694 l 122 694 z m 169 757 l 221 757 l 119 893 l -1 893 z "},"í":{"ha":293,"x_min":0,"x_max":0,"o":"m 82 0 l 157 0 l 157 694 l 82 694 z m 278 893 l 158 893 l 56 757 l 108 757 z "},"ò":{"ha":732,"x_min":0,"x_max":0,"o":"m 103 343 b 353 626 103 500 214 626 b 600 343 489 626 600 500 b 353 63 600 189 489 63 b 103 343 214 63 103 189 z m 26 343 b 353 -14 26 147 174 -14 b 676 343 532 -14 676 147 b 353 703 676 542 532 703 b 26 343 174 703 26 542 z m 364 747 l 415 747 l 314 883 l 193 883 z "},"ó":{"ha":732,"x_min":0,"x_max":0,"o":"m 103 343 b 353 626 103 500 214 626 b 600 343 489 626 600 500 b 353 63 600 189 489 63 b 103 343 214 63 103 189 z m 26 343 b 353 -14 26 147 174 -14 b 676 343 532 -14 676 147 b 353 703 676 542 532 703 b 26 343 174 703 26 542 z m 551 883 l 432 883 l 329 747 l 382 747 z "},"ù":{"ha":625,"x_min":0,"x_max":0,"o":"m 476 0 l 572 0 b 551 75 564 8 551 44 l 551 694 l 476 694 l 476 226 b 308 65 461 142 392 65 b 136 246 217 65 140 149 l 135 253 l 135 692 l 60 692 l 60 249 b 64 243 61 247 63 246 b 299 -12 68 101 169 -12 b 476 74 369 -12 432 22 z m 313 747 l 364 747 l 263 883 l 142 883 z "},"ú":{"ha":625,"x_min":0,"x_max":0,"o":"m 476 0 l 572 0 b 551 75 564 8 551 44 l 551 694 l 476 694 l 476 226 b 308 65 461 142 392 65 b 136 246 217 65 140 149 l 135 253 l 135 692 l 60 692 l 60 249 b 64 243 61 247 63 246 b 299 -12 68 101 169 -12 b 476 74 369 -12 432 22 z m 478 883 l 358 883 l 256 747 l 308 747 z "},"ý":{"ha":743,"x_min":0,"x_max":0,"o":"m 67 -262 b 126 -271 86 -268 107 -271 b 350 -104 214 -271 311 -210 b 410 54 368 -51 390 1 l 408 53 l 672 703 l 592 703 b 372 150 519 521 444 331 l 151 703 l 71 703 b 335 54 158 490 249 267 b 282 -76 317 10 300 -32 b 129 -196 253 -154 189 -196 b 78 -185 111 -196 89 -196 z m 565 883 l 446 883 l 343 747 l 396 747 z "},":":{"ha":253,"x_min":0,"x_max":0,"o":"m 75 0 l 181 0 l 181 106 l 75 106 z m 75 589 l 181 589 l 181 694 l 75 694 z "},";":{"ha":235,"x_min":0,"x_max":0,"o":"m 75 589 l 179 589 l 179 694 l 75 694 z m 82 13 l 28 -75 l 43 -99 l 167 6 l 167 106 l 82 106 z "},"=":{"ha":611,"x_min":0,"x_max":0,"o":"m 90 532 l 561 532 l 561 611 l 90 611 z m 90 271 l 561 271 l 561 349 l 90 349 z "},"Ç":{"ha":881,"x_min":0,"x_max":0,"o":"m 813 824 b 507 965 731 913 622 965 b 68 475 265 965 68 751 b 417 -3 68 238 222 44 l 415 -75 l 436 -75 b 496 -107 454 -75 496 -82 b 408 -147 496 -139 426 -147 l 482 -201 b 560 -110 540 -169 560 -137 b 492 -28 560 -69 517 -36 b 497 -12 493 -24 496 -15 b 810 125 617 -11 725 35 l 756 176 b 507 61 688 106 599 61 b 143 475 303 61 143 254 b 507 892 143 701 304 892 b 758 774 599 892 689 847 z "},"ç":{"ha":685,"x_min":0,"x_max":0,"o":"m 404 -12 b 624 99 488 -4 567 38 l 569 151 b 382 64 519 97 451 64 b 124 346 239 64 124 189 b 382 626 124 501 239 626 b 575 533 453 626 522 590 l 628 586 b 382 703 564 658 476 703 b 47 346 196 703 47 542 b 322 -7 47 168 167 24 l 319 -81 l 335 -81 b 342 -79 336 -81 339 -79 b 400 -118 361 -79 400 -86 b 322 -156 400 -139 351 -153 l 389 -208 b 465 -115 444 -174 465 -142 b 397 -32 465 -74 422 -40 z "},"¢":{"ha":664,"x_min":0,"x_max":0,"o":"m 321 699 b 28 344 158 678 28 526 b 321 -8 28 164 158 13 l 321 -101 l 403 -101 l 403 -10 b 603 101 479 0 544 42 l 549 154 b 403 67 506 108 458 75 l 403 622 b 551 532 461 614 514 578 l 606 588 b 403 699 551 646 482 689 l 403 792 l 321 792 z m 103 344 b 321 622 103 485 197 601 l 321 67 b 103 344 197 88 103 206 z "},"|":{"ha":182,"x_min":0,"x_max":0,"o":"m 69 1 l 124 1 l 124 988 l 69 988 z "},"$":{"ha":647,"x_min":0,"x_max":0,"o":"m 282 517 b 122 703 188 542 122 619 b 282 878 122 785 193 856 z m 357 428 b 521 239 453 407 521 328 b 357 68 521 150 449 82 z m 282 1015 l 282 953 b 43 697 144 928 43 828 b 282 438 43 571 140 467 l 282 64 b 103 174 207 68 139 121 l 42 125 b 275 -11 92 53 178 -1 l 282 -11 l 282 -89 l 357 -89 l 357 -8 b 600 243 493 11 600 114 b 357 501 600 368 496 471 l 357 885 b 535 794 426 881 493 844 l 596 843 b 357 957 536 910 454 954 l 357 1015 z "},"‘":{"ha":208,"x_min":0,"x_max":0,"o":"m 118 836 l 131 942 l 106 954 l 39 811 l 81 719 l 156 754 z "},"’":{"ha":221,"x_min":0,"x_max":0,"o":"m 82 853 l 38 758 l 57 739 l 167 856 l 156 953 l 72 946 z "},"”":{"ha":329,"x_min":0,"x_max":0,"o":"m 83 853 l 39 758 l 57 739 l 167 856 l 156 953 l 72 946 z m 182 853 l 138 758 l 156 739 l 265 856 l 254 953 l 171 946 z "},"“":{"ha":303,"x_min":0,"x_max":0,"o":"m 233 946 l 150 953 l 139 856 l 249 739 l 267 758 b 222 853 253 788 236 822 z m 135 946 l 51 953 l 40 856 l 150 739 l 168 758 b 124 853 154 788 138 822 z "},"\"":{"ha":301,"x_min":0,"x_max":0,"o":"m 57 754 l 78 733 l 136 857 l 125 953 l 43 953 z m 158 754 l 179 733 l 238 857 l 226 953 l 144 953 z "},"„":{"ha":321,"x_min":0,"x_max":0,"o":"m 83 15 l 31 -74 l 46 -96 l 165 10 l 165 108 l 81 108 z m 183 14 l 131 -75 l 144 -99 l 265 7 l 265 107 l 183 107 z "},"ª":{"ha":249,"x_min":0,"x_max":0,"o":"m 240 432 b 211 524 225 447 211 492 b 213 600 211 563 213 600 b 128 703 210 661 172 703 b 49 692 97 703 75 699 l 58 638 b 128 650 88 647 106 650 b 161 601 144 650 160 625 l 124 601 b 28 517 68 601 28 564 b 121 426 28 467 68 426 b 161 433 136 426 149 428 l 161 432 z m 161 550 l 161 517 b 121 481 161 499 142 481 b 81 517 99 481 81 499 b 121 550 81 532 99 550 z "},"º":{"ha":322,"x_min":0,"x_max":0,"o":"m 82 558 b 161 650 82 606 121 650 b 233 558 197 650 233 606 b 161 474 233 517 197 474 b 82 558 121 474 82 517 z m 29 558 b 161 421 29 482 86 421 b 288 558 231 421 288 482 b 161 703 288 642 231 703 b 29 558 86 703 29 642 z "},"²":{"ha":389,"x_min":0,"x_max":0,"o":"m 129 488 l 296 674 b 340 792 318 701 340 749 b 171 958 340 883 267 958 b 35 899 121 958 76 935 l 81 851 b 171 897 113 882 144 897 b 281 792 226 897 281 849 b 251 719 281 768 269 738 l 39 482 l 39 428 l 340 428 l 340 488 z "},"³":{"ha":368,"x_min":0,"x_max":0,"o":"m 50 524 l 14 488 b 157 422 51 447 99 422 b 318 571 246 422 318 488 b 257 693 318 618 292 664 b 322 811 301 718 322 758 b 158 953 322 890 249 953 b 15 890 103 953 54 932 l 60 843 b 158 893 90 876 126 893 b 258 811 210 893 258 853 b 165 725 258 769 213 728 l 83 725 l 83 665 l 164 665 b 258 571 211 660 258 619 b 157 481 258 521 207 481 b 68 524 125 481 90 500 z "},"¨":{"ha":365,"x_min":0,"x_max":0,"o":"m 46 888 b 94 842 46 864 68 842 b 143 888 119 842 143 864 b 94 933 143 913 119 933 b 46 888 68 933 46 913 z m 226 888 b 275 842 226 864 249 842 b 324 888 301 842 324 864 b 275 933 324 913 301 933 b 226 888 249 933 226 913 z "},"ä":{"ha":564,"x_min":0,"x_max":0,"o":"m 153 888 b 201 842 153 864 174 842 b 250 888 226 842 250 864 b 201 933 250 913 226 933 b 153 888 174 933 153 913 z m 333 888 b 382 842 333 864 356 842 b 431 888 408 842 431 864 b 382 933 431 913 408 933 b 333 888 356 933 333 913 z m 435 10 l 531 10 b 508 231 515 26 508 129 b 511 458 508 342 511 458 l 511 472 b 301 713 504 604 413 710 b 118 686 236 713 175 703 l 136 614 b 300 636 189 629 244 636 b 435 444 381 633 435 549 l 435 425 l 290 425 b 54 210 163 425 54 335 b 281 -4 54 92 157 -4 b 435 51 339 -4 394 18 z m 435 210 b 281 74 435 133 365 74 b 131 210 197 74 131 133 b 290 350 131 293 203 350 l 435 350 z "},"ë":{"ha":633,"x_min":0,"x_max":0,"o":"m 329 63 b 113 311 214 64 122 169 l 589 311 l 589 353 b 314 704 589 551 469 704 b 35 346 161 704 35 543 l 35 321 b 329 -12 46 135 175 -12 b 365 -11 340 -12 354 -12 b 538 49 426 0 485 19 l 508 115 b 329 63 461 92 385 63 z m 114 385 b 314 626 132 519 215 626 b 515 385 418 626 503 524 z m 175 888 b 224 842 175 864 197 842 b 272 888 249 842 272 864 b 224 933 272 913 249 933 b 175 888 197 933 175 913 z m 356 888 b 404 842 356 864 378 842 b 453 888 431 842 453 864 b 404 933 453 913 431 933 b 356 888 378 933 356 913 z "},"ö":{"ha":732,"x_min":0,"x_max":0,"o":"m 103 343 b 353 626 103 500 214 626 b 600 343 489 626 600 500 b 353 63 600 189 489 63 b 103 343 214 63 103 189 z m 26 343 b 353 -14 26 147 174 -14 b 676 343 532 -14 676 147 b 353 703 676 542 532 703 b 26 343 174 703 26 542 z m 232 888 b 281 842 232 864 254 842 b 329 888 306 842 329 864 b 281 933 329 913 306 933 b 232 888 254 933 232 913 z m 413 888 b 461 842 413 864 435 842 b 510 888 488 842 510 864 b 461 933 510 913 488 933 b 413 888 435 933 413 913 z "},"ü":{"ha":625,"x_min":0,"x_max":0,"o":"m 476 0 l 572 0 b 551 75 564 8 551 44 l 551 694 l 476 694 l 476 226 b 308 65 461 142 392 65 b 136 246 217 65 140 149 l 135 253 l 135 692 l 60 692 l 60 249 b 64 243 61 247 63 246 b 299 -12 68 101 169 -12 b 476 74 369 -12 432 22 z m 171 888 b 219 842 171 864 193 842 b 268 888 244 842 268 864 b 219 933 268 913 244 933 b 171 888 193 933 171 913 z m 351 888 b 400 842 351 864 374 842 b 449 888 426 842 449 864 b 400 933 449 913 426 933 b 351 888 374 933 351 913 z "},"ÿ":{"ha":743,"x_min":0,"x_max":0,"o":"m 67 -262 b 126 -271 86 -268 107 -271 b 350 -104 214 -271 311 -210 b 410 54 368 -51 390 1 l 408 53 l 672 703 l 592 703 b 372 150 519 521 444 331 l 151 703 l 71 703 b 335 54 158 490 249 267 b 282 -76 317 10 300 -32 b 129 -196 253 -154 189 -196 b 78 -185 111 -196 89 -196 z m 244 888 b 293 842 244 864 267 842 b 342 888 318 842 342 864 b 293 933 342 913 318 933 b 244 888 267 933 244 913 z m 425 888 b 474 842 425 864 447 842 b 522 888 500 842 522 864 b 474 933 522 913 500 933 b 425 888 447 933 425 913 z "},"ï":{"ha":246,"x_min":0,"x_max":0,"o":"m 82 0 l 156 0 l 156 694 l 82 694 z m 8 888 b 57 842 8 864 31 842 b 106 888 83 842 106 864 b 57 933 106 913 83 933 b 8 888 31 933 8 913 z m 136 888 b 185 842 136 864 157 842 b 233 888 210 842 233 864 b 185 933 233 913 210 933 b 136 888 157 933 136 913 z "},"˜":{"ha":464,"x_min":0,"x_max":0,"o":"m 207 808 b 313 781 235 790 272 781 b 417 808 349 781 388 792 l 396 868 b 313 843 372 853 342 843 b 233 863 282 843 257 853 b 142 882 208 871 183 882 b 38 856 106 882 69 872 l 60 796 b 142 819 85 811 114 819 b 208 808 168 819 190 815 z "},"ñ":{"ha":601,"x_min":0,"x_max":0,"o":"m 271 835 b 347 818 293 822 318 818 b 479 857 394 818 444 833 l 450 915 b 349 879 425 894 383 879 b 293 890 328 879 311 885 b 226 903 274 896 257 903 b 96 865 176 903 128 888 l 122 807 b 222 842 150 825 186 842 b 272 833 240 842 258 839 z m 128 699 l 32 699 b 53 632 40 690 53 660 l 53 10 l 128 10 l 128 478 b 300 639 147 564 218 639 b 471 458 393 639 469 560 l 471 10 l 547 10 l 544 458 b 307 715 540 601 438 715 b 128 629 235 715 174 685 z "},"õ":{"ha":713,"x_min":0,"x_max":0,"o":"m 103 343 b 353 626 103 500 214 626 b 600 343 489 626 600 500 b 353 63 600 189 489 63 b 103 343 214 63 103 189 z m 26 343 b 353 -14 26 147 174 -14 b 676 343 532 -14 676 147 b 353 703 676 542 532 703 b 26 343 174 703 26 542 z m 342 808 b 447 781 369 790 407 781 b 551 808 483 781 522 792 l 531 868 b 447 843 507 853 476 843 b 368 863 417 843 392 853 b 276 882 343 871 318 882 b 172 856 240 882 204 872 l 194 796 b 276 819 219 811 249 819 b 343 808 303 819 325 815 z "},"ø":{"ha":713,"x_min":0,"x_max":0,"o":"m 26 343 b 79 149 26 275 46 210 l 136 199 b 103 343 114 242 103 292 b 353 626 103 500 214 626 b 533 535 419 626 485 592 l 592 585 b 353 703 529 657 444 703 b 26 343 174 703 26 542 z m 600 343 b 353 63 600 189 489 63 b 154 171 276 63 204 104 l 99 121 b 353 -14 161 38 253 -14 b 676 343 532 -14 676 147 b 611 558 676 419 651 494 l 551 508 b 600 343 582 458 600 403 z "},"ﬁ":{"ha":701,"x_min":0,"x_max":0,"o":"m 429 954 b 351 958 396 958 376 958 b 144 721 243 958 151 850 l 144 704 b 146 679 144 704 146 688 l 46 679 l 46 603 l 147 603 l 147 0 l 219 0 l 219 603 l 322 603 l 322 0 l 396 0 l 396 679 l 219 679 l 219 706 b 351 883 219 803 278 881 b 407 878 365 883 383 883 z "},"ﬂ":{"ha":681,"x_min":0,"x_max":0,"o":"m 351 958 b 144 721 242 956 151 853 l 144 704 b 146 679 144 704 146 688 l 44 679 l 44 603 l 147 603 l 147 0 l 219 0 l 219 603 l 349 603 l 349 0 l 426 0 l 426 958 z m 219 706 b 349 883 219 801 276 878 l 349 679 l 219 679 z m 351 883 l 358 883 l 349 893 l 349 883 z "},"!":{"ha":244,"x_min":0,"x_max":0,"o":"m 151 31 b 111 71 150 53 136 71 b 69 29 88 71 69 53 b 111 -12 69 7 88 -12 b 151 29 133 -12 151 7 z m 78 133 l 144 133 l 144 953 l 78 953 z "},"¡":{"ha":222,"x_min":0,"x_max":0,"o":"m 71 915 b 111 875 72 893 85 875 b 153 917 133 875 153 893 b 111 958 153 939 133 958 b 71 917 88 958 71 939 z m 144 814 l 78 814 l 78 0 l 144 0 z "},"'":{"ha":168,"x_min":0,"x_max":0,"o":"m 67 853 l 21 758 l 40 739 l 150 856 l 139 953 l 56 946 z "},"(":{"ha":361,"x_min":0,"x_max":0,"o":"m 221 967 b 57 400 125 865 57 646 b 228 -176 57 143 128 -78 l 272 -103 b 140 400 194 -28 140 168 b 254 882 140 611 185 797 z "},")":{"ha":342,"x_min":0,"x_max":0,"o":"m 89 882 b 203 400 158 797 203 611 b 69 -103 203 168 149 -28 l 115 -176 b 286 400 214 -78 286 143 b 121 967 286 644 217 864 z "},"~":{"ha":482,"x_min":0,"x_max":0,"o":"m 224 414 b 311 393 247 400 278 393 b 443 433 361 393 408 410 l 417 493 b 307 458 390 471 346 458 b 244 471 285 458 264 465 b 172 485 224 478 201 485 b 36 446 124 485 72 471 l 68 386 b 174 421 94 408 132 421 b 225 413 192 421 208 418 z "},"¼":{"ha":531,"x_min":0,"x_max":0,"o":"m 369 488 l 210 213 l 210 172 l 381 172 l 381 0 l 428 0 l 428 172 l 494 172 l 494 219 l 428 219 l 428 322 l 381 322 l 381 219 l 267 219 l 411 467 z m 69 592 b 126 636 88 606 108 621 l 126 288 l 174 288 l 174 703 l 133 703 l 38 622 z "},"½":{"ha":493,"x_min":0,"x_max":0,"o":"m 53 593 b 110 638 71 607 92 622 l 110 288 l 157 288 l 157 704 l 117 704 l 21 624 z m 410 229 b 453 333 433 257 453 293 b 296 488 453 419 383 488 b 181 438 254 488 214 468 l 214 404 b 296 440 239 426 267 440 b 406 333 357 440 406 394 b 379 264 406 308 394 281 l 179 40 l 179 0 l 453 0 l 453 46 l 246 46 z "},"•":{"ha":290,"x_min":0,"x_max":0,"o":"m 53 528 b 147 438 53 482 97 438 b 242 528 196 438 242 482 b 147 622 242 578 196 622 b 53 528 97 622 53 578 z "},"·":{"ha":313,"x_min":0,"x_max":0,"o":"m 78 433 b 158 358 78 394 114 358 b 242 433 203 358 242 394 b 158 511 242 471 203 511 b 78 433 114 511 78 471 z "},"°":{"ha":347,"x_min":0,"x_max":0,"o":"m 86 815 b 175 906 86 861 129 906 b 256 815 214 906 256 861 b 175 731 256 772 214 731 b 86 815 129 731 86 772 z m 29 815 b 175 676 29 739 92 676 b 313 815 251 676 313 739 b 175 958 313 897 251 958 b 29 815 92 958 29 897 z "},"¦":{"ha":182,"x_min":0,"x_max":0,"o":"m 124 554 l 124 988 l 69 988 l 69 554 z m 69 483 l 69 1 l 124 1 l 124 483 z "},"§":{"ha":494,"x_min":0,"x_max":0,"o":"m 389 660 b 244 694 336 682 286 694 b 178 686 219 694 199 692 b 294 769 182 739 235 769 b 407 739 328 769 368 760 l 440 810 b 297 844 388 833 339 844 b 103 679 192 844 103 783 b 104 649 103 669 103 658 b 50 531 67 619 50 579 b 211 314 50 451 117 361 b 313 222 258 290 294 261 b 257 213 297 217 278 213 b 147 240 225 213 186 224 l 114 174 b 254 138 163 149 211 138 b 328 149 278 138 304 142 b 203 63 321 92 265 63 b 96 89 171 63 135 72 l 63 25 b 204 -12 113 0 161 -12 b 401 163 306 -12 401 53 b 400 189 401 172 401 179 b 454 311 433 221 454 263 b 297 526 454 394 393 481 b 197 614 251 550 217 581 b 242 619 210 618 226 619 b 356 589 275 619 314 610 z m 369 272 l 369 271 b 246 378 344 314 300 353 b 126 525 172 414 126 472 b 138 571 126 539 132 558 b 261 465 164 526 208 488 b 379 314 328 429 379 367 b 369 272 379 299 375 283 z "},"†":{"ha":675,"x_min":0,"x_max":0,"o":"m 307 756 l 307 1 l 361 1 l 361 756 l 628 756 l 628 810 l 361 810 l 361 988 l 307 988 l 307 810 l 54 810 l 54 756 z "},"¾":{"ha":636,"x_min":0,"x_max":0,"o":"m 36 267 b 158 208 67 232 110 208 b 311 349 243 208 311 271 b 244 464 311 397 285 439 b 314 571 286 485 314 524 b 161 704 314 646 244 704 b 36 650 114 704 68 685 l 69 617 b 161 658 93 643 126 658 b 265 571 218 658 265 619 b 168 488 265 526 222 490 l 96 488 l 96 439 b 264 349 181 453 264 417 b 158 256 264 297 217 256 b 71 297 124 256 92 272 z m 483 174 l 483 3 l 532 3 l 532 174 l 599 174 l 599 222 l 532 222 l 532 325 l 483 325 l 483 222 l 374 222 l 515 469 l 474 490 l 313 215 l 313 174 z "},"™":{"ha":579,"x_min":0,"x_max":0,"o":"m 179 883 l 258 883 l 258 942 l 36 942 l 36 883 l 117 883 l 117 649 l 179 649 z m 454 942 b 426 897 447 929 435 911 b 385 824 411 872 399 850 l 314 942 l 264 942 l 264 649 l 325 649 l 325 810 l 367 738 l 400 738 b 443 810 406 747 424 779 l 443 649 l 503 649 l 503 942 z "},"Ÿ":{"ha":946,"x_min":0,"x_max":0,"o":"m 801 960 b 467 507 690 811 576 656 l 136 960 l 35 960 b 429 432 157 794 306 597 l 429 0 l 507 0 l 507 432 l 901 960 z m 331 1031 b 379 985 331 1007 353 985 b 428 1031 404 985 428 1007 b 379 1076 428 1056 404 1076 b 331 1031 353 1076 331 1056 z m 511 1031 b 560 985 511 1007 533 985 b 608 1031 586 985 608 1007 b 560 1076 608 1056 586 1076 b 511 1031 533 1076 511 1056 z "},"¶":{"ha":531,"x_min":0,"x_max":0,"o":"m 463 951 l 390 951 l 390 3 l 463 3 z m 376 953 l 261 953 b 31 721 133 953 31 850 b 251 489 31 600 133 499 l 251 0 l 376 0 z m 235 569 b 104 726 160 572 104 643 b 235 883 104 813 160 881 z "},"‰":{"ha":1157,"x_min":0,"x_max":0,"o":""},"Ä":{"ha":828,"x_min":0,"x_max":0,"o":"m 288 467 b 418 819 332 589 374 699 b 550 467 464 693 504 592 z m 35 0 l 114 0 b 260 390 161 126 214 264 l 578 390 l 724 0 l 803 0 l 450 960 l 388 960 z m 272 1044 b 321 999 272 1021 294 999 b 369 1044 346 999 369 1021 b 321 1090 369 1069 346 1090 b 272 1044 294 1090 272 1069 z m 453 1044 b 501 999 453 1021 475 999 b 550 1044 528 999 550 1021 b 501 1090 550 1069 528 1090 b 453 1044 475 1090 453 1069 z "},"Ë":{"ha":674,"x_min":0,"x_max":0,"o":"m 546 549 l 132 549 l 132 886 l 617 886 l 617 960 l 56 960 l 56 0 l 617 0 l 617 76 l 132 76 l 132 472 l 546 472 z m 194 1046 b 243 1000 194 1022 217 1000 b 292 1046 268 1000 292 1022 b 243 1092 292 1071 268 1092 b 194 1046 217 1092 194 1071 z m 375 1046 b 424 1000 375 1022 397 1000 b 472 1046 450 1000 472 1022 b 424 1092 472 1071 450 1092 b 375 1046 397 1092 375 1071 z "},"Ï":{"ha":192,"x_min":0,"x_max":0,"o":"m 136 960 l 60 960 l 60 0 l 136 0 z m -46 1044 b 3 999 -46 1021 -24 999 b 51 1044 28 999 51 1021 b 3 1090 51 1069 28 1090 b -46 1044 -24 1090 -46 1069 z m 135 1044 b 183 999 135 1021 157 999 b 232 1044 210 999 232 1021 b 183 1090 232 1069 210 1090 b 135 1044 157 1090 135 1069 z "},"Ö":{"ha":958,"x_min":0,"x_max":0,"o":"m 721 779 b 836 479 793 706 836 599 b 474 65 836 249 681 65 b 114 479 272 65 114 249 b 474 888 114 707 274 888 b 721 779 569 888 658 849 z m 776 122 b 910 479 861 211 910 335 b 474 965 910 750 724 965 b 36 479 232 965 36 749 b 474 -12 36 200 239 -12 b 776 122 592 -12 697 36 z m 338 1046 b 386 1000 338 1022 360 1000 b 435 1046 411 1000 435 1022 b 386 1092 435 1071 411 1092 b 338 1046 360 1092 338 1071 z m 518 1046 b 567 1000 518 1022 540 1000 b 615 1046 593 1000 615 1022 b 567 1092 615 1071 593 1092 b 518 1046 540 1092 518 1071 z "},"Ü":{"ha":831,"x_min":0,"x_max":0,"o":"m 135 960 l 54 960 l 54 244 b 415 -12 64 104 221 -12 b 765 244 601 -12 760 104 l 765 960 l 689 960 l 689 244 b 415 65 676 150 556 65 b 135 244 268 65 147 150 z m 274 1044 b 322 999 274 1021 296 999 b 371 1044 347 999 371 1021 b 322 1090 371 1069 347 1090 b 274 1044 296 1090 274 1069 z m 454 1044 b 503 999 454 1021 476 999 b 551 1044 529 999 551 1021 b 503 1090 551 1069 529 1090 b 454 1044 476 1090 454 1069 z "},"Î":{"ha":192,"x_min":0,"x_max":0,"o":"m 136 960 l 60 960 l 60 0 l 136 0 z "},"Í":{"ha":214,"x_min":0,"x_max":0,"o":"m 136 960 l 60 960 l 60 0 l 136 0 z m 290 1149 l 171 1149 l 68 1013 l 121 1013 z "},"Ì":{"ha":182,"x_min":0,"x_max":0,"o":"m 147 960 l 71 960 l 71 0 l 147 0 z m 111 1013 l 163 1013 l 61 1149 l -60 1149 z "},"Ñ":{"ha":746,"x_min":0,"x_max":0,"o":"m 60 960 l 60 0 l 135 0 l 135 804 l 607 0 l 679 0 l 679 960 l 603 960 l 603 160 l 131 960 z m 350 1028 b 456 1000 378 1010 415 1000 b 560 1028 492 1000 531 1011 l 539 1088 b 456 1063 515 1072 485 1063 b 376 1082 425 1063 400 1072 b 285 1101 351 1090 326 1101 b 181 1075 249 1101 213 1092 l 203 1015 b 285 1039 228 1031 257 1039 b 351 1028 311 1039 333 1035 z "},"¹":{"ha":365,"x_min":0,"x_max":0,"o":"m 92 751 b 213 851 129 782 174 818 l 213 528 l 289 528 l 289 953 l 219 953 l 39 803 z "},"+":{"ha":628,"x_min":0,"x_max":0,"o":"m 350 369 l 556 369 l 556 444 l 350 444 l 350 649 l 275 649 l 275 444 l 71 444 l 71 369 l 275 369 l 275 164 l 350 164 z "},"-":{"ha":585,"x_min":0,"x_max":0,"o":"m 536 369 l 536 444 l 51 444 l 51 369 z "},"⁄":{"ha":531,"x_min":0,"x_max":0,"o":"m 481 953 l 400 953 l 51 0 l 133 0 z "},"/":{"ha":525,"x_min":0,"x_max":0,"o":"m 481 953 l 400 953 l 51 0 l 133 0 z "},"&":{"ha":829,"x_min":0,"x_max":0,"o":"m 340 0 b 603 124 442 -1 529 40 b 618 140 607 128 614 135 l 635 119 b 644 107 636 118 640 113 b 760 1 678 67 704 36 l 760 92 b 669 196 710 132 701 146 b 672 218 669 203 672 210 b 757 410 703 264 732 335 l 671 428 b 626 307 660 378 643 340 b 614 281 622 299 618 289 b 406 540 542 369 478 453 l 426 551 b 600 769 547 618 600 688 b 393 958 600 872 515 958 b 174 761 260 958 174 861 b 279 563 174 711 185 663 b 294 543 283 557 289 549 b 271 532 283 538 281 538 b 53 264 124 465 53 369 b 340 0 53 122 174 0 z m 671 190 l 669 194 l 669 196 z m 515 768 b 382 594 515 700 486 656 l 383 594 l 371 588 l 307 661 b 257 772 275 697 258 735 b 386 899 257 843 317 899 b 515 768 464 899 515 840 z m 331 497 b 565 204 411 397 485 303 b 557 192 563 201 558 194 l 557 193 b 340 68 508 121 419 67 b 143 271 224 68 143 174 b 317 488 143 347 192 415 z "},"Õ":{"ha":958,"x_min":0,"x_max":0,"o":"m 721 779 b 836 479 793 706 836 599 b 474 65 836 249 681 65 b 114 479 272 65 114 249 b 474 888 114 707 274 888 b 721 779 569 888 658 849 z m 776 122 b 910 479 861 211 910 335 b 474 965 910 750 724 965 b 36 479 232 965 36 749 b 474 -12 36 200 239 -12 b 776 122 592 -12 697 36 z m 456 1029 b 561 1001 483 1011 521 1001 b 665 1029 597 1001 636 1013 l 644 1089 b 561 1064 621 1074 590 1064 b 482 1083 531 1064 506 1074 b 390 1103 457 1092 432 1103 b 286 1076 354 1103 318 1093 l 308 1017 b 390 1040 333 1032 363 1040 b 457 1029 417 1040 439 1036 z "},"Ð":{"ha":907,"x_min":0,"x_max":0,"o":"m 147 374 l 147 0 l 507 0 b 842 482 694 7 842 219 b 504 960 842 744 692 957 l 147 960 l 147 449 l 56 449 l 56 374 z m 504 883 b 765 482 650 881 765 701 b 507 79 765 263 650 83 b 224 76 414 79 318 76 l 224 374 l 461 374 l 461 449 l 224 449 l 224 883 z "},"±":{"ha":628,"x_min":0,"x_max":0,"o":"m 350 621 l 556 621 l 556 697 l 350 697 l 350 901 l 275 901 l 275 697 l 71 697 l 71 621 l 275 621 l 275 417 l 350 417 z m 554 208 l 554 283 l 69 283 l 69 208 z "},"*":{"ha":654,"x_min":0,"x_max":0,"o":"m 363 676 l 471 569 l 524 621 b 415 729 490 656 449 694 l 568 729 l 568 806 l 417 806 l 524 913 l 469 965 l 363 858 l 363 1010 l 288 1010 l 288 858 l 181 965 l 128 911 l 235 804 l 85 804 l 85 729 l 235 729 l 126 621 l 181 569 b 288 674 213 601 251 639 l 288 524 l 363 524 z "},"×":{"ha":510,"x_min":0,"x_max":0,"o":"m 244 381 l 390 236 l 443 289 b 297 435 396 336 344 388 l 443 579 l 389 632 l 244 488 l 99 632 l 47 578 l 190 435 l 46 289 l 99 236 z "},"−":{"ha":579,"x_min":0,"x_max":0,"o":"m 536 369 l 536 444 l 51 444 l 51 369 z "},"_":{"ha":713,"x_min":0,"x_max":0,"o":"m 639 0 l 639 75 l 51 75 l 51 0 z "},"\\":{"ha":515,"x_min":0,"x_max":0,"o":"m 399 0 l 481 0 l 132 953 l 51 953 z "},"–":{"ha":578,"x_min":0,"x_max":0,"o":"m 536 369 l 536 444 l 51 444 l 51 369 z "},"—":{"ha":739,"x_min":0,"x_max":0,"o":"m 692 369 l 692 444 l 53 444 l 53 369 z "},"÷":{"ha":590,"x_min":0,"x_max":0,"o":"m 235 189 l 340 189 l 340 294 l 235 294 z m 235 522 l 340 522 l 340 628 l 235 628 z m 532 379 l 532 454 l 47 454 l 47 379 z "},"…":{"ha":604,"x_min":0,"x_max":0,"o":"m 53 0 l 158 0 l 158 106 l 53 106 z m 249 0 l 354 0 l 354 106 l 249 106 z m 444 0 l 550 0 l 550 106 l 444 106 z "},"@":{"ha":1047,"x_min":0,"x_max":0,"o":"m 697 269 b 650 338 644 269 646 303 b 651 369 651 346 651 361 b 654 572 651 467 654 572 l 651 572 b 525 768 644 676 611 765 b 413 753 474 768 450 765 l 396 751 l 415 672 l 433 674 b 524 688 467 686 485 688 b 578 556 568 688 576 624 l 479 556 b 293 372 376 556 293 476 b 474 186 293 269 374 186 b 586 225 515 186 556 201 b 689 190 611 194 661 192 b 967 569 851 211 967 401 b 547 958 967 815 768 958 b 64 450 257 958 64 738 b 558 1 64 156 268 1 b 985 218 772 1 924 106 l 993 239 l 889 239 b 557 90 833 156 715 90 b 150 458 300 90 150 228 b 543 869 150 693 318 869 b 879 571 743 869 879 732 b 844 399 879 525 864 439 b 697 269 808 324 735 269 z m 586 372 b 474 260 586 310 535 260 b 360 372 411 260 360 310 b 479 482 360 436 414 482 l 586 482 z "},"¥":{"ha":946,"x_min":0,"x_max":0,"o":"m 231 200 l 428 200 l 428 0 l 506 0 l 506 200 l 703 200 l 703 278 l 506 278 l 506 311 l 703 311 l 703 389 l 506 389 l 506 428 l 897 953 l 797 953 b 464 503 688 806 574 651 l 138 953 l 36 953 b 428 428 158 789 306 593 l 428 389 l 231 389 l 231 311 l 428 311 l 428 278 l 231 278 z "},"£":{"ha":772,"x_min":0,"x_max":0,"o":"m 515 407 l 515 482 l 268 482 l 268 953 l 193 953 l 193 482 l 31 482 l 31 407 l 193 407 l 193 0 l 724 0 l 724 75 l 268 75 l 268 407 z "},"þ":{"ha":718,"x_min":0,"x_max":0,"o":"m 157 954 l 81 954 l 81 -265 l 156 -265 l 156 35 b 347 -12 208 11 271 -12 b 682 349 533 -12 682 149 b 347 706 682 543 533 701 b 157 660 269 706 207 688 z m 153 563 b 347 628 167 597 250 628 b 606 347 488 628 606 497 b 347 64 606 193 488 67 b 157 136 240 67 153 99 z "},"Ø":{"ha":958,"x_min":0,"x_max":0,"o":"m 776 122 b 910 479 861 211 910 335 b 674 914 910 668 819 828 l 689 960 l 608 960 b 604 944 607 957 606 950 b 474 965 564 957 517 965 b 36 479 232 965 36 749 b 274 42 36 285 136 118 l 258 0 l 342 0 b 343 10 342 1 342 7 b 474 -12 382 -3 429 -12 b 776 122 592 -12 697 36 z m 721 779 b 836 479 793 706 836 599 b 474 65 836 249 681 65 b 369 82 436 65 404 69 b 647 840 463 335 554 586 b 721 779 675 824 696 804 z m 474 888 b 576 871 510 888 543 883 b 299 114 483 617 392 369 b 114 479 188 183 114 319 b 474 888 114 707 274 888 z "},"‡":{"ha":567,"x_min":0,"x_max":0,"o":"m 39 568 l 511 568 l 511 646 l 39 646 z m 39 342 l 511 342 l 511 421 l 39 421 z m 313 0 l 313 953 l 233 953 l 233 0 z "},"¬":{"ha":919,"x_min":0,"x_max":0,"o":"m 857 542 l 54 542 l 54 467 l 782 467 l 782 221 l 857 221 z "},"›":{"ha":476,"x_min":0,"x_max":0,"o":"m 110 690 l 54 638 b 346 344 150 542 251 440 l 54 58 l 108 3 l 451 344 z "},"»":{"ha":728,"x_min":0,"x_max":0,"o":"m 82 700 l 32 642 b 349 376 135 556 246 464 l 86 65 l 142 15 l 453 386 z m 311 700 l 261 642 b 578 376 364 556 475 464 l 315 65 l 371 15 l 682 386 z "},">":{"ha":467,"x_min":0,"x_max":0,"o":"m 97 690 l 43 638 b 333 344 138 542 239 440 l 43 58 l 97 3 l 440 344 z "},"<":{"ha":458,"x_min":0,"x_max":0,"o":"m 29 344 l 372 3 l 426 58 b 136 344 333 150 229 253 l 426 638 l 371 690 z "},"Þ":{"ha":743,"x_min":0,"x_max":0,"o":"m 157 961 l 81 961 l 81 -267 l 156 -267 l 156 35 b 349 -12 208 11 272 -12 b 686 351 536 -12 686 150 b 349 711 686 547 536 707 b 157 664 271 711 207 693 z m 153 567 b 349 633 165 601 250 633 b 608 350 490 633 608 501 b 349 64 608 194 490 67 b 157 138 240 67 153 100 z "},"‹":{"ha":489,"x_min":0,"x_max":0,"o":"m 54 344 l 399 3 l 451 58 b 161 344 358 150 254 253 l 451 638 l 397 690 z "},"^":{"ha":765,"x_min":0,"x_max":0,"o":"m 35 615 l 88 560 b 381 850 183 654 285 756 l 667 560 l 722 614 l 381 957 z "},"ˆ":{"ha":372,"x_min":0,"x_max":0,"o":"m 32 776 l 78 728 l 190 840 l 301 728 l 350 775 l 190 933 z "},"ˇ":{"ha":383,"x_min":0,"x_max":0,"o":"m 350 885 l 304 933 l 192 821 l 81 933 l 32 886 l 192 728 z "},"Ł":{"ha":792,"x_min":0,"x_max":0,"o":"m 471 940 l 471 960 l 410 960 l 410 940 z m 224 239 l 224 0 l 758 0 l 758 76 l 300 76 l 300 450 l 485 960 l 403 960 b 300 678 371 868 333 771 l 300 960 l 224 960 l 224 467 l 51 0 l 135 0 z "},"Ž":{"ha":761,"x_min":0,"x_max":0,"o":"m 721 960 l 82 960 l 82 883 l 585 883 l 33 0 l 665 0 l 665 76 l 172 76 z m 536 1150 l 490 1199 l 378 1086 l 267 1199 l 218 1151 l 378 993 z "},"ž":{"ha":628,"x_min":0,"x_max":0,"o":"m 57 0 l 572 0 l 572 76 l 161 76 l 572 622 l 572 694 l 61 694 l 61 618 l 468 618 l 57 72 z m 469 885 l 424 933 l 311 821 l 200 933 l 151 886 l 311 728 z "},"ƒ":{"ha":456,"x_min":0,"x_max":0,"o":"m 429 954 b 351 958 396 958 376 958 b 144 721 243 958 151 850 l 144 704 b 146 679 144 704 146 688 l 46 679 l 46 603 l 147 603 l 147 0 l 219 0 l 219 603 l 397 603 l 397 679 l 219 679 l 219 706 b 351 883 219 803 278 881 b 407 878 365 883 383 883 z "},"Š":{"ha":674,"x_min":0,"x_max":0,"o":"m 54 126 b 324 -12 110 44 208 -12 b 615 244 485 -12 615 101 b 343 511 615 376 499 490 b 135 710 224 521 135 610 b 354 892 135 811 240 892 b 550 800 435 892 504 857 l 613 850 b 354 964 547 922 463 964 b 56 704 189 964 56 853 b 335 436 56 569 176 454 b 536 240 447 419 536 336 b 326 64 536 140 438 64 b 115 175 235 64 160 107 z m 493 1150 l 447 1199 l 335 1086 l 224 1199 l 175 1151 l 335 993 z "},"š":{"ha":579,"x_min":0,"x_max":0,"o":"m 525 607 b 300 701 472 663 386 701 b 65 521 174 701 65 629 b 288 315 65 428 164 335 b 446 176 371 297 446 236 b 288 64 446 110 375 64 b 121 132 224 64 160 93 l 64 88 b 292 -11 115 25 207 -11 b 521 176 417 -11 521 65 b 301 386 521 276 428 368 b 142 519 208 400 142 458 b 294 625 142 582 208 625 b 464 563 358 625 422 603 z m 446 885 l 400 933 l 288 821 l 176 933 l 128 886 l 288 728 z "},"ê":{"ha":633,"x_min":0,"x_max":0,"o":"m 329 63 b 113 311 214 64 122 169 l 589 311 l 589 353 b 314 704 589 551 469 704 b 35 346 161 704 35 543 l 35 321 b 329 -12 46 135 175 -12 b 365 -11 340 -12 354 -12 b 538 49 426 0 485 19 l 508 115 b 329 63 461 92 385 63 z m 114 385 b 314 626 132 519 215 626 b 515 385 418 626 503 524 z m 154 776 l 200 728 l 313 840 l 424 728 l 472 775 l 313 933 z "},"Ã":{"ha":828,"x_min":0,"x_max":0,"o":"m 408 1071 b 489 1054 432 1060 458 1054 b 618 1092 538 1054 583 1067 l 590 1147 b 486 1117 567 1128 526 1117 b 429 1129 468 1117 447 1124 b 361 1140 410 1135 389 1140 b 232 1103 313 1140 267 1125 l 261 1047 b 361 1078 286 1065 322 1078 b 410 1069 379 1078 394 1075 z m 292 476 b 422 829 336 599 378 708 b 554 476 468 703 508 601 z m 39 10 l 118 10 b 264 400 165 136 218 274 l 582 400 l 728 10 l 807 10 l 454 969 l 392 969 z "},"Æ":{"ha":1501,"x_min":0,"x_max":0,"o":"m 722 467 l 290 467 b 439 886 340 610 389 743 l 735 886 z m 390 960 l 36 0 l 117 0 b 263 390 163 126 217 264 l 722 390 l 722 0 l 1285 0 l 1285 76 l 799 76 l 799 472 l 1214 472 l 1214 549 l 799 549 l 799 886 l 1285 886 l 1285 960 z "},"â":{"ha":564,"x_min":0,"x_max":0,"o":"m 431 0 l 526 0 b 504 221 511 17 504 119 b 507 449 504 332 507 449 l 507 463 b 297 703 500 594 408 700 b 114 676 232 703 171 693 l 132 604 b 296 626 185 619 240 626 b 431 435 376 624 431 539 l 431 415 l 286 415 b 50 200 158 415 50 325 b 276 -14 50 82 153 -14 b 431 42 335 -14 390 8 z m 431 200 b 276 64 431 124 361 64 b 126 200 193 64 126 124 b 286 340 126 283 199 340 l 431 340 z m 119 776 l 165 728 l 278 840 l 389 728 l 438 775 l 278 933 z "},"ß":{"ha":722,"x_min":0,"x_max":0,"o":"m 376 879 b 557 714 478 874 557 800 b 376 544 557 619 478 547 l 144 544 l 144 879 z m 144 469 l 353 469 b 576 274 488 463 576 375 b 376 75 576 169 488 81 l 185 75 l 257 3 l 376 3 b 653 274 532 6 653 128 b 510 506 653 371 597 461 b 633 714 582 550 633 625 b 376 953 633 840 518 950 l 68 953 l 68 -233 l 144 -233 z "},"«":{"ha":739,"x_min":0,"x_max":0,"o":"m 263 386 l 574 15 l 629 65 b 367 376 546 167 453 275 l 683 642 l 633 700 z m 33 386 l 344 15 l 400 65 b 138 376 315 167 222 275 l 454 642 l 404 700 z "},"û":{"ha":625,"x_min":0,"x_max":0,"o":"m 476 0 l 572 0 b 551 75 564 8 551 44 l 551 694 l 476 694 l 476 226 b 308 65 461 142 392 65 b 136 246 217 65 140 149 l 135 253 l 135 692 l 60 692 l 60 249 b 64 243 61 247 63 246 b 299 -12 68 101 169 -12 b 476 74 369 -12 432 22 z m 150 776 l 196 728 l 308 840 l 419 728 l 468 775 l 308 933 z "},"ô":{"ha":713,"x_min":0,"x_max":0,"o":"m 103 343 b 353 626 103 500 214 626 b 600 343 489 626 600 500 b 353 63 600 189 489 63 b 103 343 214 63 103 189 z m 26 343 b 353 -14 26 147 174 -14 b 676 343 532 -14 676 147 b 353 703 676 542 532 703 b 26 343 174 703 26 542 z m 194 776 l 240 728 l 353 840 l 464 728 l 513 775 l 353 933 z "},"ð":{"ha":679,"x_min":0,"x_max":0,"o":"m 49 660 b 336 382 51 504 183 382 b 565 486 428 382 513 426 l 565 469 b 550 257 565 396 560 322 b 324 68 526 150 439 68 b 144 169 256 68 189 106 l 75 113 b 314 -10 133 40 222 -10 b 619 239 463 -10 592 92 b 636 447 632 304 636 374 l 636 483 b 632 674 636 543 636 615 b 339 960 619 828 496 960 b 49 669 178 960 49 828 z m 121 663 b 340 882 121 779 217 882 b 556 672 453 882 556 786 b 336 457 556 551 458 457 b 121 663 222 457 128 549 z "},"î":{"ha":246,"x_min":0,"x_max":0,"o":"m 82 0 l 156 0 l 156 694 l 82 694 z m -35 786 l 11 738 l 124 850 l 235 738 l 283 785 l 124 943 z "},"ı":{"ha":476,"x_min":0,"x_max":0,"o":"m 364 69 l 364 872 l 288 872 l 288 144 l 42 144 l 42 69 z "},"#":{"ha":992,"x_min":0,"x_max":0,"o":"m 32 299 l 208 299 l 99 0 l 181 0 b 289 299 215 96 256 203 l 594 299 l 485 0 l 568 0 b 675 299 601 96 642 203 l 897 299 l 963 376 l 704 376 b 771 551 725 436 749 493 l 899 551 l 961 629 l 797 629 l 892 889 l 811 889 b 714 629 779 804 744 715 l 411 629 l 506 889 l 425 889 b 326 629 393 804 358 715 l 93 629 l 31 551 l 300 551 b 235 376 278 492 257 435 l 96 376 z m 383 551 l 686 551 b 622 376 665 492 643 435 l 318 376 z "},"ã":{"ha":564,"x_min":0,"x_max":0,"o":"m 254 776 b 331 761 275 767 303 761 b 461 804 376 761 426 776 l 435 858 b 325 822 410 836 365 822 b 274 833 308 822 292 828 b 210 844 256 839 236 844 b 78 803 163 844 113 826 l 110 747 b 211 782 133 768 175 782 b 256 775 226 782 242 779 z m 435 10 l 531 10 b 508 231 515 26 508 129 b 511 458 508 342 511 458 l 511 472 b 301 713 504 604 413 710 b 118 686 236 713 175 703 l 136 614 b 300 636 189 629 244 636 b 435 444 381 633 435 549 l 435 425 l 290 425 b 54 210 163 425 54 335 b 281 -4 54 92 157 -4 b 435 51 339 -4 394 18 z m 435 210 b 281 74 435 133 365 74 b 131 210 197 74 131 133 b 290 350 131 293 203 350 l 435 350 z "},"˙":{"ha":206,"x_min":0,"x_max":0,"o":"m 50 797 l 156 797 l 156 903 l 50 903 z "},"[":{"ha":292,"x_min":0,"x_max":0,"o":"m 214 74 l 214 421 b 156 471 206 447 183 467 l 156 508 b 214 560 186 511 204 533 l 214 879 b 238 875 215 875 225 875 l 238 953 b 138 890 189 953 144 928 l 138 578 b 88 526 138 550 115 526 l 50 526 l 50 451 l 88 451 b 138 400 115 451 138 429 l 138 74 b 238 0 138 29 197 0 l 238 75 b 214 74 224 75 214 75 z "},"]":{"ha":254,"x_min":0,"x_max":0,"o":"m 58 78 b 32 75 54 76 47 75 l 32 0 b 135 74 78 0 135 31 l 135 400 b 181 451 135 429 153 451 l 218 451 l 218 526 l 181 526 b 135 578 153 526 135 550 l 135 882 l 132 890 b 32 953 125 925 88 953 l 32 875 l 58 875 l 58 560 b 115 508 64 536 88 514 b 113 471 114 494 113 483 b 58 419 85 469 65 450 z "},"ł":{"ha":528,"x_min":0,"x_max":0,"o":"m 226 503 l 24 156 l 117 156 b 226 346 153 218 190 282 l 226 0 l 303 0 l 303 479 l 506 835 l 419 835 b 303 632 382 769 342 700 l 303 953 l 226 953 z "}}}
